<?xml version="1.0" encoding="utf-8"?>
<!-- Generator: Adobe Illustrator 22.0.1, SVG Export Plug-In . SVG Version: 6.00 Build 0)  -->
<svg version="1.1" id="Capa_1" xmlns="http://www.w3.org/2000/svg" xmlns:xlink="http://www.w3.org/1999/xlink" x="0px" y="0px"
	 viewBox="0 0 56 56" style="enable-background:new 0 0 56 56;" xml:space="preserve">
<path d="M8,15c3.5,0,6.4-2.6,6.9-6H54c0.6,0,1-0.4,1-1s-0.4-1-1-1H14.9C14.4,3.6,11.5,1,8,1C4.1,1,1,4.1,1,8S4.1,15,8,15z M8,3
	c2.8,0,5,2.2,5,5s-2.2,5-5,5s-5-2.2-5-5S5.2,3,8,3z"/>
<path d="M48,41c-3.5,0-6.4,2.6-6.9,6H2c-0.6,0-1,0.4-1,1s0.4,1,1,1h39.1c0.5,3.4,3.4,6,6.9,6c3.9,0,7-3.1,7-7S51.9,41,48,41z M48,53
	c-2.8,0-5-2.2-5-5s2.2-5,5-5s5,2.2,5,5S50.8,53,48,53z"/>
<path d="M54,27H35.4c-0.4-3.6-3.5-6.4-7.2-6.4S21.4,23.4,21,27H2c-0.6,0-1,0.4-1,1s0.4,1,1,1h19.1c0.6,3.4,3.5,6,7.1,6
	s6.5-2.6,7.1-6H54c0.6,0,1-0.4,1-1S54.6,27,54,27z M28.2,33c-2.9,0-5.2-2.3-5.2-5.2s2.3-5.2,5.2-5.2s5.2,2.3,5.2,5.2
	S31.1,33,28.2,33z"/>
</svg>
